<?xml version="1.0" encoding="UTF-8" standalone="no"?>
<svg
   width="24"
   height="24"
   viewBox="0 0 24 24"
   version="1.1"
   id="svg4"
   sodipodi:docname="github.svg"
   inkscape:version="1.1.1 (3bf5ae0d25, 2021-09-20)"
   xmlns:inkscape="http://www.inkscape.org/namespaces/inkscape"
   xmlns:sodipodi="http://sodipodi.sourceforge.net/DTD/sodipodi-0.dtd"
   xmlns="http://www.w3.org/2000/svg"
   xmlns:svg="http://www.w3.org/2000/svg">
  <defs
     id="defs8" />
  <sodipodi:namedview
     id="namedview6"
     pagecolor="#505050"
     bordercolor="#eeeeee"
     borderopacity="1"
     inkscape:pageshadow="0"
     inkscape:pageopacity="0"
     inkscape:pagecheckerboard="0"
     showgrid="false"
     fit-margin-top="0"
     fit-margin-left="0"
     fit-margin-right="0"
     fit-margin-bottom="0"
     inkscape:zoom="26.833333"
     inkscape:cx="20.012422"
     inkscape:cy="12"
     inkscape:window-width="1920"
     inkscape:window-height="1019"
     inkscape:window-x="0"
     inkscape:window-y="0"
     inkscape:window-maximized="1"
     inkscape:current-layer="svg4" />
  <path
     fill="#eaeaea"
     d="M 12,0 C 5.374,0 0,5.5088311 0,12.303364 0,17.7394 3.438,22.351111 8.207,23.978231 8.806,24.092037 9,23.710633 9,23.386644 V 21.096168 C 5.662,21.840521 4.967,19.644371 4.967,19.644371 4.421,18.222307 3.634,17.843979 3.634,17.843979 c -1.089,-0.763834 0.083,-0.74743 0.083,-0.74743 1.205,0.08612 1.839,1.268272 1.839,1.268272 1.07,1.880364 2.807,1.336966 3.492,1.022204 C 9.155,18.592433 9.466,18.049035 9.81,17.742476 7.145,17.429765 4.343,16.374752 4.343,11.661538 4.343,10.317396 4.812,9.2203459 5.579,8.3591104 5.455,8.0484505 5.044,6.7965832 5.696,5.1028201 c 0,0 1.008,-0.3301402 3.301,1.2610948 C 9.954,6.0911904 10.98,5.9548281 12,5.9497017 c 1.02,0.00513 2.047,0.1414887 3.006,0.4142132 2.291,-1.591235 3.297,-1.2610948 3.297,-1.2610948 0.653,1.6947884 0.242,2.9466557 0.118,3.2562903 0.77,0.8612355 1.235,1.9593106 1.235,3.3024276 0,4.725517 -2.807,5.766177 -5.479,6.070685 0.43,0.381404 0.823,1.129859 0.823,2.278173 v 3.376248 c 0,0.327064 0.192,0.711545 0.801,0.590561 C 20.566,22.348035 24,17.737349 24,12.303364 24,5.5088311 18.627,0 12,0 Z"
     id="path2"
     style="stroke-width:1.01256" />
</svg>
